<svg width="43" height="45" viewBox="0 0 43 45" fill="none" xmlns="http://www.w3.org/2000/svg">
<path d="M2.9565 37.5796C6.07819 31.9277 9.35914 25.8965 12.7996 19.4858C16.2399 13.0753 19.2399 7.40268 21.7995 2.46813C25.2087 15.0006 26.9844 22.417 27.1265 24.7172C27.3396 28.1674 31.1595 42.0872 29.7045 42.8395C28.2496 43.5917 17.4465 30.9813 14.8025 27.3113C12.1586 23.6412 2.08256 11.637 3.10531 11.7818C3.65492 11.8596 14.2998 12.5036 23.9384 13.9854C32.2359 15.2612 39.6537 17.2857 40.8023 18.6136C42.8352 20.9641 20.4123 27.8215 17.7962 29.1182C15.1801 30.4148 3.08731 36.2885 1.07867 37.3137" stroke="#148A92" stroke-width="2" stroke-linecap="round" stroke-linejoin="round"/>
</svg>
