<svg width="50" height="50" viewBox="0 0 50 50" fill="none" xmlns="http://www.w3.org/2000/svg">
<path d="M11.6585 8.04038C10.7691 9.74654 11.2879 12.8745 11.6585 14.2252C5.87693 20.8365 10.769 26.3816 12.548 28.301C13.9711 29.8366 18.0331 30.7892 19.8862 31.0735C19.1746 31.5854 18.7003 33.2773 18.5521 34.0593C16.9957 34.4859 14.3269 34.2726 13.4375 32.3532C12.7259 30.8176 11.8067 30.0072 11.4361 29.7939C9.21239 28.7276 7.65593 29.3674 7.21119 29.5806C6.85539 29.7513 7.0149 30.1801 7.21119 30.2205C8.57134 30.2205 10.1279 31.8862 10.5468 32.7797C10.7951 33.3094 11.2584 34.6991 12.3257 36.4053C13.3931 38.1114 16.9214 37.9693 18.5521 37.6849L18.7745 40.0309C19.1303 41.3958 28.4106 41.0261 33.0063 40.6707C33.0804 40.102 33.1842 38.3247 33.0063 35.7655C32.8284 33.2062 31.7462 31.429 31.2273 30.8603C33.3769 31.5712 39.6773 28.9408 41.0117 25.7418C43.4672 19.855 40.7893 15.647 39.0104 14.2252C39.8998 11.3247 39.0845 8.89345 38.5656 8.04038C36.7866 7.69915 33.2287 9.60436 31.6721 10.5996C27.5804 8.72284 21.6654 9.81763 19.2193 10.5996C17.0845 8.55223 13.2893 8.04038 11.6585 8.04038Z" stroke="#148A92" stroke-width="2" stroke-linejoin="round"/>
</svg>
