<svg width="50" height="50" viewBox="0 0 50 50" fill="none" xmlns="http://www.w3.org/2000/svg">
<path d="M27.9227 19.7287C37.9146 20.8315 27.3262 13.6177 35.8586 14.0159C38.8843 14.1572 36.1797 18.191 36.9894 19.2726C37.6309 20.1311 42.0225 18.3746 42.8491 19.4788C43.3434 20.1396 41.1268 24.4693 41.9239 24.7354C42.5288 24.9374 43.9982 23.416 45.0073 23.7048C47.0865 24.3006 47.6436 28.6884 45.8297 29.5799C44.0157 30.4714 42.8653 29.7691 42.7463 29.8892C42.176 30.4602 43.8285 33.102 43.4659 34.012C43.2343 34.5924 38.4442 35.5737 37.9147 35.0428C36.8106 33.9359 38.8927 29.8249 36.6811 29.2707C33.5174 28.4779 34.8032 33.1275 33.6998 33.4967C32.136 34.0192 29.0717 33.7029 27.3262 33.7029" stroke="#87C9C7" stroke-width="2" stroke-linecap="round" stroke-linejoin="round"/>
<path d="M9.75089 23.5644C10.2648 22.3398 9.15478 20.648 10.0389 19.5442C10.2349 19.3002 15.9754 19.049 16.3385 19.3389C17.6745 20.4053 14.6028 23.9902 18.6031 24.9877C22.0273 25.8417 19.9993 19.9804 20.8728 19.5442C21.9197 19.0223 24.1057 19.7138 25.2936 19.5442C28.7658 19.0498 25.8782 22.5474 26.9406 23.9606C27.6097 24.8505 33.058 23.006 31.6755 27.1446C30.95 29.3154 28.708 28.5733 27.4552 29.1986C26.8631 29.4941 27.4225 33.7225 27.3246 33.7027C26.0964 33.4579 20.2177 34.0406 20.4087 34.2313C21.5522 35.3722 23.8695 28.4481 18.6031 29.1986C17.3721 29.3738 16.2856 30.4417 16.1327 31.6636C16.0439 32.3755 16.3646 34.431 16.3385 34.4367C14.827 34.7384 13.2252 34.3402 11.6037 34.7448C11.3111 34.8179 9.21507 35.6473 9.03035 35.4638C8.70605 35.1395 9.07689 32.464 9.1333 32.0102C9.22353 31.2934 9.02754 29.7062 9.75089 29.7062C11.3315 29.7062 6.09706 31.156 4.57208 29.1986C3.0471 27.2413 4.57208 23.5644 9.1333 24.6737" stroke="#148A92" stroke-width="2" stroke-linecap="round" stroke-linejoin="round"/>
</svg>
